<?xml version="1.0" encoding="UTF-8"?>
<svg width="800px" height="600px" viewBox="0 0 800 600" version="1.1" xmlns="http://www.w3.org/2000/svg" xmlns:xlink="http://www.w3.org/1999/xlink" style="background: #FFFFFF;">
    <!-- Generator: Sketch 48.2 (47327) - http://www.bohemiancoding.com/sketch -->
    <title>Artboard 2</title>
    <desc>Created with Sketch.</desc>
    <defs>
        <rect id="path-1" x="0" y="0" width="470.222222" height="80.8194444" rx="1.46944444"></rect>
        <rect id="path-2" x="0" y="0" width="470.222222" height="80.8194444" rx="1.46944444"></rect>
        <rect id="path-3" x="0" y="0" width="470.222222" height="80.8194444" rx="1.46944444"></rect>
        <rect id="path-4" x="0" y="0" width="470.222222" height="110.208333" rx="1.46944444"></rect>
        <rect id="path-5" x="609.819444" y="41.8791667" width="161.638889" height="143.270833" rx="1.46944444"></rect>
        <filter x="-6.5%" y="-7.3%" width="113.0%" height="114.7%" filterUnits="objectBoundingBox" id="filter-6">
            <feOffset dx="0" dy="0" in="SourceAlpha" result="shadowOffsetOuter1"></feOffset>
            <feGaussianBlur stdDeviation="3.5" in="shadowOffsetOuter1" result="shadowBlurOuter1"></feGaussianBlur>
            <feColorMatrix values="0 0 0 0 0.666666667   0 0 0 0 0.666666667   0 0 0 0 0.666666667  0 0 0 0.5 0" type="matrix" in="shadowBlurOuter1"></feColorMatrix>
        </filter>
    </defs>
    <g id="Page-1" stroke="none" stroke-width="1" fill="none" fill-rule="evenodd">
        <g id="Artboard-2">
            <g id="Group" transform="translate(-129.000000, 30.000000)">
                <g id="Past-Pushes" transform="translate(293.888889, 501.080556)">
                    <g id="Section-Splitter" fill="#AAAAAA" font-family="CerebriSans-Bold, Cerebri Sans" font-size="10.2861111" font-weight="bold" letter-spacing="0.734722222">
                        <text id="Number">
                            <tspan x="456.245483" y="10">12</tspan>
                        </text>
                        <text id="Title">
                            <tspan x="0" y="10">Past</tspan>
                        </text>
                    </g>
                    <g id="Post/Default" transform="translate(0.000000, 27.919444)">
                        <g id="Base">
                            <use fill="#FFFFFF" fill-rule="evenodd" xlink:href="#path-1"></use>
                            <rect stroke="#AAAAAA" stroke-width="0.734722222" x="0.367361111" y="0.367361111" width="469.4875" height="80.0847222" rx="1.46944444"></rect>
                        </g>
                        <text id="Time-Stamp" font-family="CerebriSans-Bold, Cerebri Sans" font-size="8.81666667" font-weight="bold" fill="#AAAAAA">
                            <tspan x="397.713143" y="56.0222222">Time Stamp</tspan>
                        </text>
                        <text id="OPENS" font-family="CerebriSans-Bold, Cerebri Sans" font-size="8.81666667" font-weight="bold" fill="#AAAAAA">
                            <tspan x="84.125" y="56.0222222">120 Opens</tspan>
                        </text>
                        <text id="VIEWS" font-family="CerebriSans-Bold, Cerebri Sans" font-size="8.81666667" font-weight="bold" fill="#AAAAAA">
                            <tspan x="22.0416667" y="56.0222222">200 Views</tspan>
                        </text>
                        <text id="Action" font-family="CerebriSans-Bold, Cerebri Sans" font-size="10.2861111" font-weight="bold" fill="#007AFF">
                            <tspan x="393.927601" y="34.9805556">View More</tspan>
                        </text>
                        <text id="Copy" font-family="CerebriSans-Regular, Cerebri Sans" font-size="13.225" font-weight="normal" fill="#111111">
                            <tspan x="22.0416667" y="36.5111111">Copy</tspan>
                        </text>
                    </g>
                </g>
                <g id="Upcoming-Pushes-(NON-MVP)" transform="translate(293.888889, 260.091667)">
                    <g id="Section-Splitter" fill="#AAAAAA" font-family="CerebriSans-Bold, Cerebri Sans" font-size="10.2861111" font-weight="bold" letter-spacing="0.734722222">
                        <text id="Number">
                            <tspan x="463.122742" y="10">2</tspan>
                        </text>
                        <text id="Title">
                            <tspan x="0" y="10">Upcoming</tspan>
                        </text>
                    </g>
                    <g id="Post/Default" transform="translate(0.000000, 27.919444)">
                        <g id="Base">
                            <use fill="#FFFFFF" fill-rule="evenodd" xlink:href="#path-2"></use>
                            <rect stroke="#AAAAAA" stroke-width="0.734722222" x="0.367361111" y="0.367361111" width="469.4875" height="80.0847222" rx="1.46944444"></rect>
                        </g>
                        <text id="Time-Stamp" font-family="CerebriSans-Bold, Cerebri Sans" font-size="8.81666667" font-weight="bold" fill="#AAAAAA">
                            <tspan x="344.322371" y="56.0222222">2:00PM Monday, Jun 23</tspan>
                        </text>
                        <text id="OPENS" font-family="CerebriSans-Bold, Cerebri Sans" font-size="8.81666667" font-weight="bold"></text>
                        <text id="VIEWS" font-family="CerebriSans-Bold, Cerebri Sans" font-size="8.81666667" font-weight="bold" fill="#AAAAAA">
                            <tspan x="22.0416667" y="56.0222222">45 People</tspan>
                        </text>
                        <text id="Action" font-family="CerebriSans-Bold, Cerebri Sans" font-size="10.2861111" font-weight="bold" fill="#007AFF">
                            <tspan x="393.927601" y="34.9805556">View More</tspan>
                        </text>
                        <text id="Copy" font-family="CerebriSans-Regular, Cerebri Sans" font-size="13.225" font-weight="normal" fill="#111111">
                            <tspan x="22.0416667" y="36.5111111">Copy</tspan>
                        </text>
                    </g>
                    <g id="Post/Default" transform="translate(0.000000, 123.433333)">
                        <g id="Base">
                            <use fill="#FFFFFF" fill-rule="evenodd" xlink:href="#path-3"></use>
                            <rect stroke="#AAAAAA" stroke-width="0.734722222" x="0.367361111" y="0.367361111" width="469.4875" height="80.0847222" rx="1.46944444"></rect>
                        </g>
                        <text id="Time-Stamp" font-family="CerebriSans-Bold, Cerebri Sans" font-size="8.81666667" font-weight="bold" fill="#AAAAAA">
                            <tspan x="339.05734" y="56.0222222">10:00PM Monday, Jun 23</tspan>
                        </text>
                        <text id="OPENS" font-family="CerebriSans-Bold, Cerebri Sans" font-size="8.81666667" font-weight="bold"></text>
                        <text id="VIEWS" font-family="CerebriSans-Bold, Cerebri Sans" font-size="8.81666667" font-weight="bold" fill="#AAAAAA">
                            <tspan x="22.0416667" y="56.0222222">45 People</tspan>
                        </text>
                        <text id="Action" font-family="CerebriSans-Bold, Cerebri Sans" font-size="10.2861111" font-weight="bold" fill="#007AFF">
                            <tspan x="393.927601" y="34.9805556">View More</tspan>
                        </text>
                        <text id="Copy" font-family="CerebriSans-Regular, Cerebri Sans" font-size="13.225" font-weight="normal" fill="#111111">
                            <tspan x="22.0416667" y="36.5111111">Copy</tspan>
                        </text>
                    </g>
                </g>
                <g id="Compose" transform="translate(293.888889, 69.063889)">
                    <g id="Base">
                        <use fill="#FFFFFF" fill-rule="evenodd" xlink:href="#path-4"></use>
                        <rect stroke="#AAAAAA" stroke-width="0.734722222" x="0.367361111" y="0.367361111" width="469.4875" height="109.473611" rx="1.46944444"></rect>
                    </g>
                    <g id="Button/Default" transform="translate(297.562500, 124.902778)">
                        <rect id="Base" fill="#007AFF" fill-rule="evenodd" x="0" y="0" width="174.119102" height="36.7361111" rx="18.3680556"></rect>
                        <text id="Post" font-family="CerebriSans-Bold, Cerebri Sans" font-size="10.2861111" font-weight="bold" fill="#FFFFFF">
                            <tspan x="28.6318209" y="21.7555556">Send Push to 45 People</tspan>
                        </text>
                    </g>
                    <text id="This-is-going-out-to" font-family="CerebriSans-Bold, Cerebri Sans" font-size="10.2861111" font-weight="bold" fill="#AAAAAA">
                        <tspan x="0" y="145.923611">This is going out to 45 people</tspan>
                    </text>
                    <text id="Margharita-Special-f" font-family="CerebriSans-Regular, Cerebri Sans" font-size="14.6944444" font-weight="normal" fill="#111111">
                        <tspan x="22.0416667" y="36.0416667">Margharita Special from 5-6! Buy 1 get 1 free, but only if you </tspan>
                        <tspan x="22.0416667" y="54.0416667">mention “Sponta”</tspan>
                    </text>
                </g>
                <g id="Header">
                    <rect id="Base" fill="#FFFFFF" fill-rule="evenodd" x="0" y="0" width="1058" height="54.3694444"></rect>
                    <text id="Team" font-family="CerebriSans-Bold, Cerebri Sans" font-size="10.2861111" font-weight="bold" fill="#007AFF">
                        <tspan x="653.663656" y="30.5722222">DenverHappyHours</tspan>
                    </text>
                    <g id="PickUp" transform="translate(756.763889, 25.715278)" fill="#007AFF" fill-rule="evenodd">
                        <polygon transform="translate(3.673611, 2.204167) scale(1, -1) translate(-3.673611, -2.204167) " points="0 0 7.34722222 0 3.67361111 4.40833333"></polygon>
                    </g>
                    <path d="M296.399931,33.7217765 C295.386342,33.7217765 294.423986,33.5586168 293.512834,33.2322926 C292.601682,32.9059684 291.795675,32.4164894 291.094789,31.763841 L292.841604,29.5864817 C293.973805,30.5316967 295.197641,31.0042971 296.51315,31.0042971 C296.933682,31.0042971 297.254467,30.9339696 297.475516,30.7933126 C297.696565,30.6526557 297.807087,30.4529257 297.807087,30.1941169 C297.807087,30.0365812 297.780131,29.9268704 297.726216,29.8312237 C297.672302,29.7355769 297.572562,29.6427447 297.426993,29.5527242 C297.281425,29.4627038 297.087336,29.3754977 296.844722,29.2911035 C296.602107,29.2067094 296.286713,29.1195033 295.89853,29.0294829 C295.29469,28.8831996 294.733989,28.722853 294.216412,28.5484384 C293.698835,28.3740237 293.248657,28.1489759 292.865865,27.8732882 C292.483074,27.5976005 292.181158,27.2544026 291.960109,26.8436842 C291.739061,26.4329658 291.628538,25.9237952 291.628538,25.316157 C291.628538,24.7310241 291.728278,24.2246665 291.927761,23.7633116 C292.127244,23.3019567 292.418377,22.9024968 292.801168,22.5649201 C293.18396,22.2273433 293.644921,21.9657252 294.184064,21.780058 C294.723207,21.5943908 295.332429,21.5015586 296.01175,21.5015586 C296.982207,21.5015586 297.847519,21.6337742 298.607711,21.8982093 C299.367903,22.1626444 300.0553,22.553665 300.669923,23.0712827 L299.101024,25.383672 C298.583447,25.001085 298.052399,24.7113359 297.507864,24.5144162 C296.96333,24.3174964 296.437673,24.219038 295.930879,24.219038 C295.553478,24.219038 295.270433,24.2921785 295.081732,24.4384618 C294.893032,24.584745 294.798684,24.7647833 294.798684,24.9785819 C294.798684,25.1473701 294.828336,25.2655202 294.887642,25.3667932 C294.946948,25.4680663 295.049383,25.5608985 295.194952,25.6452927 C295.340521,25.7296869 295.540001,25.8140798 295.793398,25.898474 C296.046795,25.9828682 296.36758,26.0700742 296.755764,26.1600947 C297.402735,26.3063779 297.987697,26.4779769 298.510666,26.6748967 C299.033635,26.8718165 299.478421,27.1109297 299.845038,27.3922437 C300.211656,27.6735577 300.492006,28.0139425 300.686097,28.4134083 C300.880189,28.8128742 300.977233,29.2882877 300.977233,29.839663 C300.977233,30.4810587 300.86671,31.0211735 300.645662,31.4937809 C300.424613,31.9663884 300.11461,32.3686614 299.715645,32.7006119 C299.316679,33.0325623 298.836848,33.2857411 298.27614,33.4601558 C297.715431,33.6345704 297.090034,33.7217765 296.399931,33.7217765 Z M307.123434,27.57791 C307.684143,27.57791 308.123538,27.4400682 308.441632,27.1643805 C308.759727,26.8886928 308.918772,26.5145509 308.918772,26.0419434 L308.918772,26.0081859 C308.918772,25.5018207 308.759727,25.1164264 308.441632,24.8519912 C308.123538,24.5875561 307.678752,24.4553405 307.10726,24.4553405 L305.635407,24.4553405 L305.635407,27.57791 L307.123434,27.57791 Z M302.497609,21.7041036 L307.349873,21.7041036 C308.061542,21.7041036 308.708504,21.7969358 309.290779,21.9826031 C309.873053,22.1682703 310.369058,22.4383276 310.778806,22.7927833 C311.188555,23.1472389 311.503949,23.583269 311.724998,24.1008867 C311.946046,24.6185044 312.056569,25.2036287 312.056569,25.8562771 C312.056569,26.5876933 311.935264,27.2009485 311.692649,27.7298188 C311.450035,28.2586891 311.113076,28.7031585 310.681761,29.0632404 C310.250447,29.4233222 309.735573,29.6933796 309.137124,29.8734205 C308.538675,30.0534615 307.889017,30.1434806 307.188131,30.1434806 L305.635407,30.1434806 L305.635407,31.8313561 C305.635407,32.7635439 304.911262,33.5192314 304.017985,33.5192314 L302.497609,33.5192314 L302.497609,21.7041036 Z M319.108526,30.801752 C319.53984,30.801752 319.933409,30.7173591 320.289244,30.5485707 C320.645078,30.3797823 320.946994,30.1519214 321.195,29.8649812 C321.443005,29.5780409 321.637094,29.2432823 321.777271,28.8606953 C321.917448,28.4781083 321.987536,28.0730223 321.987536,27.645425 L321.987536,27.6116675 C321.987536,27.1840703 321.917448,26.7789842 321.777271,26.3963972 C321.637094,26.0138102 321.437614,25.6762385 321.178825,25.383672 C320.920037,25.0911055 320.61273,24.8576184 320.256895,24.6832037 C319.901061,24.508789 319.507492,24.421583 319.076178,24.421583 C318.644863,24.421583 318.25399,24.5059759 317.903547,24.6747643 C317.553104,24.8435527 317.251189,25.0714136 316.997791,25.3583539 C316.744394,25.6452941 316.550305,25.9800527 316.41552,26.3626397 C316.280734,26.7452267 316.213342,27.1503128 316.213342,27.57791 L316.213342,27.6116675 C316.213342,28.0392648 316.283429,28.4443508 316.423607,28.8269378 C316.563784,29.2095248 316.760568,29.5470965 317.013965,29.839663 C317.267363,30.1322296 317.571974,30.3657167 317.927808,30.5401313 C318.283643,30.714546 318.677211,30.801752 319.108526,30.801752 Z M319.076178,33.755534 C318.202766,33.755534 317.394063,33.5951874 316.650046,33.2744895 C315.906028,32.9537916 315.264457,32.5177614 314.725314,31.966386 C314.186171,31.4150107 313.76295,30.7679982 313.455639,30.0253293 C313.148327,29.2826605 312.994673,28.4893669 312.994673,27.645425 L312.994673,27.6116675 C312.994673,26.7677256 313.148327,25.971619 313.455639,25.2233238 C313.76295,24.4750287 314.191562,23.82239 314.741488,23.2653884 C315.291414,22.7083867 315.938377,22.2695435 316.682394,21.9488456 C317.426412,21.6281476 318.235114,21.4678011 319.108526,21.4678011 C319.981938,21.4678011 320.790641,21.6281476 321.534658,21.9488456 C322.278676,22.2695435 322.920246,22.7055736 323.459389,23.256949 C323.998532,23.8083244 324.421753,24.4553368 324.729065,25.1980057 C325.036377,25.9406746 325.19003,26.7339681 325.19003,27.57791 L325.19003,27.6116675 C325.19003,28.4556094 325.036377,29.251716 324.729065,30.0000112 C324.421753,30.7483064 323.993141,31.400945 323.443215,31.9579467 C322.893289,32.5149483 322.246327,32.9537916 321.50231,33.2744895 C320.758292,33.5951874 319.94959,33.755534 319.076178,33.755534 Z M326.823626,21.7041036 L329.751158,21.7041036 L334.409332,27.9492426 L334.409332,21.7041036 L335.897359,21.7041036 C336.790636,21.7041036 337.514781,22.4597912 337.514781,23.391979 L337.514781,33.5192314 L334.765164,33.5192314 L329.929075,27.0377899 L329.929075,33.5192314 L328.441047,33.5192314 C327.54777,33.5192314 326.823626,32.7635439 326.823626,31.8313561 L326.823626,21.7041036 Z M342.286173,24.5734918 L340.50701,24.5734918 C339.613733,24.5734918 338.889589,23.8178043 338.889589,22.8856164 L338.889589,21.7041036 L347.203134,21.7041036 C348.096411,21.7041036 348.820555,22.4597912 348.820555,23.391979 L348.820555,24.5734918 L345.423971,24.5734918 L345.423971,33.5192314 L343.903595,33.5192314 C343.010318,33.5192314 342.286173,32.7635439 342.286173,31.8313561 L342.286173,24.5734918 Z M354.918234,28.8606953 L353.656645,25.5018233 L352.378882,28.8606953 L354.918234,28.8606953 Z M352.168618,21.6197099 L354.120892,21.6197099 C354.77083,21.6197099 355.35764,22.0256937 355.610688,22.6504251 L360.013111,33.5192314 L357.73583,33.5192314 C357.078513,33.5192314 356.486571,33.1041008 356.238258,32.4689804 L355.82399,31.4093872 L351.456952,31.4093872 L350.648242,33.5192314 L349.056461,33.5192314 C348.431167,33.5192314 347.924266,32.9902501 347.924266,32.3377187 C347.924266,32.1796895 347.954645,32.0232661 348.013604,31.8777066 L352.168618,21.6197099 Z" id="Sponta-Logo" fill="#000000" fill-rule="nonzero"></path>
                </g>
                <g id="Dropdown">
                    <use fill="black" fill-opacity="1" filter="url(#filter-6)" xlink:href="#path-5"></use>
                    <use fill="#FFFFFF" fill-rule="evenodd" xlink:href="#path-5"></use>
                </g>
                <path d="M610.186806,141.434028 L771.825694,141.434028" id="Line" stroke-opacity="0.5" stroke="#AAAAAA" stroke-width="0.734722222" stroke-linecap="square"></path>
                <text id="HiddenHikes" font-family="CerebriSans-Bold, Cerebri Sans" font-size="10.2861111" font-weight="bold" fill="#000000">
                    <tspan x="624.513889" y="66.5736111">HiddenHikes</tspan>
                </text>
                <text id="DenverHappyHours" font-family="CerebriSans-Bold, Cerebri Sans" font-size="10.2861111" font-weight="bold" fill="#007AFF">
                    <tspan x="624.513889" y="94.4930556">DenverHappyHours</tspan>
                </text>
                <text id="WildAdventures" font-family="CerebriSans-Bold, Cerebri Sans" font-size="10.2861111" font-weight="bold" fill="#000000">
                    <tspan x="624.513889" y="122.4125">WildAdventures</tspan>
                </text>
                <text id="Log-Out" font-family="CerebriSans-Bold, Cerebri Sans" font-size="10.2861111" font-weight="bold" fill="#007AFF">
                    <tspan x="624.513889" y="167.230556">Log Out</tspan>
                </text>
            </g>
        </g>
    </g>
</svg>