<?xml version="1.0" encoding="UTF-8"?>
<svg width="800px" height="600px" viewBox="0 0 800 600" version="1.1" xmlns="http://www.w3.org/2000/svg" xmlns:xlink="http://www.w3.org/1999/xlink" style="background: #FFFFFF;">
    <!-- Generator: Sketch 48.2 (47327) - http://www.bohemiancoding.com/sketch -->
    <title>Artboard</title>
    <desc>Created with Sketch.</desc>
    <defs>
        <rect id="path-1" x="0" y="0" width="470.204082" height="38.9387755" rx="1.46938776"></rect>
        <rect id="path-2" x="0" y="0" width="470.204082" height="38.9387755" rx="1.46938776"></rect>
        <rect id="path-3" x="0" y="0" width="470.204082" height="54.9136578" rx="1.46938776"></rect>
    </defs>
    <g id="Page-1" stroke="none" stroke-width="1" fill="none" fill-rule="evenodd">
        <g id="Artboard">
            <g id="Group" transform="translate(-129.000000, 30.000000)">
                <g id="Button/Default" transform="translate(648.000000, 503.265306)">
                    <rect id="Base" fill="#007AFF" fill-rule="evenodd" x="0" y="0" width="118.758736" height="36.7346939" rx="18.3673469"></rect>
                    <text id="Post" font-family="CerebriSans-Bold, Cerebri Sans" font-size="10.2857143" font-weight="bold" fill="#FFFFFF">
                        <tspan x="21.0401262" y="21.755102">Create Channel</tspan>
                    </text>
                </g>
                <g id="Channel-Title" transform="translate(293.877551, 157.224490)">
                    <g id="Text-Field/Error" transform="translate(0.000000, 20.571429)">
                        <g id="Base">
                            <use fill="#FFFFFF" fill-rule="evenodd" xlink:href="#path-1"></use>
                            <rect stroke="#FB260A" stroke-width="0.734693878" x="0.367346939" y="0.367346939" width="469.469388" height="38.2040816" rx="1.46938776"></rect>
                        </g>
                        <text id="Field" font-family="CerebriSans-Regular, Cerebri Sans" font-size="11.755102" font-weight="normal" fill="#111111">
                            <tspan x="14.6938776" y="22.755102">DenverEats</tspan>
                        </text>
                        <g id="Error" transform="translate(440.714286, 11.755102)" fill="#FB260A" fill-rule="evenodd">
                            <path d="M7.34693878,13.9591837 C10.9987808,13.9591837 13.9591837,10.9987808 13.9591837,7.34693878 C13.9591837,3.69509676 10.9987808,0.734693878 7.34693878,0.734693878 C3.69509676,0.734693878 0.734693878,3.69509676 0.734693878,7.34693878 C0.734693878,10.9987808 3.69509676,13.9591837 7.34693878,13.9591837 Z M6.7557398,9.10905612 L8.08737245,9.10905612 L8.25382653,3.46109694 L6.58928571,3.46109694 L6.7557398,9.10905612 Z M7.42155612,11.869898 C7.94961735,11.869898 8.37436224,11.4451531 8.37436224,10.9285714 C8.37436224,10.4005102 7.94961735,9.97576531 7.42155612,9.97576531 C6.90497449,9.97576531 6.48022959,10.4005102 6.48022959,10.9285714 C6.48022959,11.4451531 6.90497449,11.869898 7.42155612,11.869898 Z" id="Info"></path>
                        </g>
                    </g>
                    <g id="Field-Title" fill="#AAAAAA" font-family="CerebriSans-Bold, Cerebri Sans" font-size="10.2857143" font-weight="bold" letter-spacing="0.734693878">
                        <text id="Title">
                            <tspan x="0" y="10">Channel Title</tspan>
                        </text>
                    </g>
                </g>
                <g id="Description" transform="translate(293.877551, 324.000000)">
                    <g id="Text-Field/Focused" transform="translate(0.000000, 20.571429)">
                        <g id="Base">
                            <use fill="#FFFFFF" fill-rule="evenodd" xlink:href="#path-2"></use>
                            <rect stroke="#007AFF" stroke-width="0.734693878" x="0.367346939" y="0.367346939" width="469.469388" height="38.2040816" rx="1.46938776"></rect>
                        </g>
                        <text id="Field" font-family="CerebriSans-Regular, Cerebri Sans" font-size="11.755102" font-weight="normal" fill="#111111">
                            <tspan x="14.6938776" y="22.755102">Only the best food in the mile hig|</tspan>
                        </text>
                    </g>
                    <g id="Field-Title" fill="#AAAAAA" font-family="CerebriSans-Bold, Cerebri Sans" font-size="10.2857143" font-weight="bold" letter-spacing="0.734693878">
                        <text id="Title">
                            <tspan x="0" y="10">Description</tspan>
                        </text>
                    </g>
                </g>
                <g id="Introduction-Push" transform="translate(293.877551, 405.551020)">
                    <g id="Text-Field/Filled" transform="translate(0.000000, 20.571429)">
                        <g id="Base">
                            <use fill="#FFFFFF" fill-rule="evenodd" xlink:href="#path-3"></use>
                            <rect stroke="#AAAAAA" stroke-width="0.734693878" x="0.367346939" y="0.367346939" width="469.469388" height="54.1789639" rx="1.46938776"></rect>
                        </g>
                        <text id="Field" font-family="CerebriSans-Regular, Cerebri Sans" font-size="11.755102" font-weight="normal" fill="#111111">
                            <tspan x="14.6938776" y="22.755102">Hope you're hungry, beacuse you're about to get the freshest food in the sky!</tspan>
                        </text>
                    </g>
                    <g id="Field-Title" fill="#AAAAAA" font-family="CerebriSans-Bold, Cerebri Sans" font-size="10.2857143" font-weight="bold" letter-spacing="0.734693878">
                        <text id="Title">
                            <tspan x="0" y="10">Introduction Push</tspan>
                        </text>
                    </g>
                </g>
                <g id="Color-Selector" transform="translate(293.877551, 238.775510)">
                    <g id="Field-Title" fill="#AAAAAA">
                        <g id="Info/Default" transform="translate(456.979592, 0.000000)" fill-rule="evenodd">
                            <path d="M6.36734694,12.0979592 C3.20241719,12.0979592 0.636734694,9.53227669 0.636734694,6.36734694 C0.636734694,3.20241719 3.20241719,0.636734694 6.36734694,0.636734694 C9.53227669,0.636734694 12.0979592,3.20241719 12.0979592,6.36734694 C12.0979592,9.53227669 9.53227669,12.0979592 6.36734694,12.0979592 Z M6.37214163,4.13877551 C6.79886895,4.13877551 7.16326531,3.7828966 7.16326531,3.34045256 C7.16326531,2.90281768 6.79886895,2.54693878 6.37214163,2.54693878 C5.93582493,2.54693878 5.57142857,2.90281768 5.57142857,3.34045256 C5.57142857,3.7828966 5.93582493,4.13877551 6.37214163,4.13877551 Z M5.73061224,9.55102041 L7.00408163,9.55102041 L7.00408163,5.09387755 L5.73061224,5.09387755 L5.73061224,9.55102041 Z" id="Info"></path>
                        </g>
                        <text id="Title" font-family="CerebriSans-Bold, Cerebri Sans" font-size="10.2857143" font-weight="bold" letter-spacing="0.734693878">
                            <tspan x="0" y="10">Pick a Channel Color</tspan>
                        </text>
                    </g>
                    <g id="Colors" transform="translate(0.000000, 27.183673)">
                        <ellipse id="Color" fill="#309AF0" opacity="0.3" cx="18.3673469" cy="18" rx="18.3673469" ry="18"></ellipse>
                        <ellipse id="Color-Copy" fill="#68DA25" opacity="0.3" cx="69.7959184" cy="18" rx="18.3673469" ry="18"></ellipse>
                        <ellipse id="Color-Copy-2" fill="#F5B538" opacity="0.3" cx="121.22449" cy="18" rx="18.3673469" ry="18"></ellipse>
                        <ellipse id="Color-Copy-3" fill="#FB260A" cx="172.653061" cy="18" rx="18.3673469" ry="18"></ellipse>
                        <g id="Check" transform="translate(166.040816, 13.224490)" fill="#FFFFFF">
                            <path d="M5.69168232,9.11710615 L12.2032966,2.42368557 C12.5852957,2.03668097 12.5852957,1.41121898 12.2032966,1.02421437 C11.8203181,0.638187047 11.2003043,0.638187047 10.8183053,1.02421437 L4.65342853,7.36874443 L2.40691914,4.94258172 C2.02492011,4.55655439 1.40490629,4.55655439 1.02192777,4.94258172 C0.638949248,5.32958632 0.638949248,5.95504831 1.02192777,6.34205292 L3.61419526,9.11710615 C3.89236892,9.39660948 4.25967568,9.55102041 4.65342853,9.55102041 C5.0462019,9.55102041 5.41546763,9.39660948 5.69168232,9.11710615 Z"></path>
                        </g>
                        <ellipse id="Color-Copy-5" fill="#22D4D8" opacity="0.3" cx="224.081633" cy="18" rx="18.3673469" ry="18"></ellipse>
                        <ellipse id="Color-Copy-4" fill="#A921D6" opacity="0.3" cx="275.510204" cy="18" rx="18.3673469" ry="18"></ellipse>
                        <ellipse id="Color-Copy-6" fill="#A4A4A4" opacity="0.3" cx="326.938776" cy="18" rx="18.3673469" ry="18"></ellipse>
                    </g>
                </g>
                <text id="Create-a-Channel" font-family="CerebriSans-Heavy, Cerebri Sans" font-size="36.7346939" font-weight="600" fill="#111111">
                    <tspan x="293.877551" y="121.408163">Create a Channel</tspan>
                </text>
                <g id="Header">
                    <rect id="Base" fill="#FFFFFF" fill-rule="evenodd" x="0" y="0" width="1057.95918" height="54.3673469"></rect>
                    <text id="Team" font-family="CerebriSans-Bold, Cerebri Sans" font-size="10.2857143" font-weight="bold" fill="#007AFF">
                        <tspan x="716.290737" y="30.5714286">Cancel</tspan>
                    </text>
                    <path d="M296.388496,33.7204755 C295.374946,33.7204755 294.412627,33.5573222 293.50151,33.2310105 C292.590394,32.9046989 291.784418,32.4152388 291.083559,31.7626156 L292.830307,29.5853403 C293.962463,30.5305188 295.186253,31.003101 296.501711,31.003101 C296.922227,31.003101 297.243,30.9327762 297.46404,30.7921247 C297.68508,30.6514731 297.795598,30.4517509 297.795598,30.192952 C297.795598,30.0354225 297.768643,29.9257159 297.71473,29.8300728 C297.660818,29.7344298 297.561082,29.6416011 297.415519,29.5515841 C297.269956,29.4615671 297.075875,29.3743645 296.83327,29.2899735 C296.590665,29.2055826 296.275283,29.1183799 295.887115,29.0283629 C295.283298,28.8820853 294.722619,28.7217449 294.205062,28.547337 C293.687504,28.3729291 293.237344,28.1478899 292.854567,27.8722129 C292.47179,27.5965358 292.169886,27.2533512 291.948846,26.8426486 C291.727806,26.4319461 291.617287,25.922795 291.617287,25.3151803 C291.617287,24.73007 291.717023,24.223732 291.916499,23.7623948 C292.115974,23.3010577 292.407096,22.9016133 292.789873,22.5640496 C293.172649,22.2264858 293.633592,21.9648778 294.172714,21.7792178 C294.711837,21.5935577 295.321036,21.5007291 296.00033,21.5007291 C296.97075,21.5007291 297.836029,21.6329396 298.596191,21.8973645 C299.356354,22.1617894 300.043724,22.5527949 300.658324,23.0703926 L299.089485,25.3826927 C298.571928,25.0001205 298.040901,24.7103826 297.496387,24.5134704 C296.951873,24.3165582 296.426237,24.2181036 295.919462,24.2181036 C295.542076,24.2181036 295.259041,24.2912413 295.070349,24.437519 C294.881656,24.5837966 294.787311,24.7638279 294.787311,24.9776182 C294.787311,25.1464 294.816962,25.2645455 294.876266,25.3658146 C294.935569,25.4670837 295.038001,25.5599124 295.183564,25.6443033 C295.329127,25.7286943 295.528599,25.8130839 295.781987,25.8974749 C296.035374,25.9818658 296.356147,26.0690685 296.744315,26.1590854 C297.391262,26.3053631 297.976201,26.4769554 298.499149,26.6738676 C299.022098,26.8707798 299.466867,27.1098838 299.833471,27.391187 C300.200074,27.6724901 300.480413,28.0128618 300.674497,28.4123122 C300.868581,28.8117626 300.965622,29.2871578 300.965622,29.8385119 C300.965622,30.4798828 300.855103,31.0199767 300.634063,31.492566 C300.413023,31.9651552 300.103032,32.3674126 299.704082,32.6993503 C299.305131,33.031288 298.82532,33.284457 298.264632,33.4588649 C297.703945,33.6332729 297.078573,33.7204755 296.388496,33.7204755 Z M307.111586,27.5768461 C307.672273,27.5768461 308.111651,27.4390096 308.429733,27.1633326 C308.747815,26.8876555 308.906854,26.513528 308.906854,26.0409387 L308.906854,26.0071825 C308.906854,25.5008369 308.747815,25.1154574 308.429733,24.8510325 C308.111651,24.5866076 307.666882,24.4543971 307.095412,24.4543971 L305.623615,24.4543971 L305.623615,27.5768461 L307.111586,27.5768461 Z M302.485939,21.7032663 L307.338016,21.7032663 C308.049657,21.7032663 308.696595,21.7960949 309.278847,21.981755 C309.861099,22.1674151 310.357084,22.437462 310.766817,22.7919039 C311.17655,23.1463459 311.491932,23.5823592 311.712972,24.0999569 C311.934012,24.6175546 312.04453,25.2026564 312.04453,25.8552796 C312.04453,26.5866676 311.92323,27.1998991 311.680625,27.728749 C311.43802,28.2575989 311.101073,28.7020511 310.669775,29.0621191 C310.238477,29.4221871 309.723623,29.6922341 309.125198,29.8722681 C308.526772,30.0523021 307.877139,30.1423177 307.17628,30.1423177 L305.623615,30.1423177 L305.623615,31.830128 C305.623615,32.7622799 304.899499,33.5179383 304.006257,33.5179383 L302.485939,33.5179383 L302.485939,21.7032663 Z M319.096215,30.8005637 C319.527513,30.8005637 319.921067,30.7161741 320.276887,30.5473922 C320.632708,30.3786103 320.934612,30.1507582 321.182608,29.863829 C321.430605,29.5768998 321.624686,29.2421542 321.764857,28.8595819 C321.905029,28.4770097 321.975114,28.0719392 321.975114,27.6443585 L321.975114,27.6106023 C321.975114,27.1830216 321.905029,26.7779511 321.764857,26.3953789 C321.624686,26.0128066 321.425213,25.675248 321.166435,25.3826927 C320.907656,25.0901375 320.600361,24.8566594 320.24454,24.6822515 C319.888719,24.5078435 319.495166,24.4206409 319.063868,24.4206409 C318.63257,24.4206409 318.241712,24.5050305 317.891283,24.6738124 C317.540853,24.8425943 317.238949,25.0704464 316.985562,25.3573756 C316.732174,25.6443048 316.538093,25.9790504 316.403313,26.3616227 C316.268532,26.7441949 316.201143,27.1492653 316.201143,27.5768461 L316.201143,27.6106023 C316.201143,28.038183 316.271228,28.4432535 316.411399,28.8258257 C316.551571,29.2083979 316.748348,29.5459566 317.001735,29.8385119 C317.255123,30.1310671 317.559722,30.3645452 317.915543,30.5389531 C318.271364,30.7133611 318.664917,30.8005637 319.096215,30.8005637 Z M319.063868,33.7542317 C318.19049,33.7542317 317.381818,33.5938914 316.63783,33.2732058 C315.893841,32.9525202 315.252295,32.5165069 314.713173,31.9651528 C314.17405,31.4137987 313.750845,30.7668112 313.443546,30.024171 C313.136246,29.2815308 312.982599,28.4882679 312.982599,27.6443585 L312.982599,27.6106023 C312.982599,26.7666929 313.136246,25.970617 313.443546,25.2223508 C313.750845,24.4740844 314.179441,23.821471 314.729346,23.2644908 C315.279251,22.7075106 315.926188,22.2686844 316.670177,21.9479988 C317.414166,21.6273132 318.222837,21.4669729 319.096215,21.4669729 C319.969593,21.4669729 320.778265,21.6273132 321.522254,21.9479988 C322.266242,22.2686844 322.907788,22.7046976 323.446911,23.2560518 C323.986033,23.8074059 324.409238,24.4543934 324.716537,25.1970336 C325.023837,25.9396738 325.177485,26.7329367 325.177485,27.5768461 L325.177485,27.6106023 C325.177485,28.4545117 325.023837,29.2505875 324.716537,29.9988539 C324.409238,30.7471201 323.980642,31.3997336 323.430737,31.9567138 C322.880832,32.513694 322.233895,32.9525202 321.489906,33.2732058 C320.745918,33.5938914 319.937246,33.7542317 319.063868,33.7542317 Z M326.811017,21.7032663 L329.738437,21.7032663 L334.396431,27.9481644 L334.396431,21.7032663 L335.884401,21.7032663 C336.777643,21.7032663 337.50176,22.4589247 337.50176,23.3910766 L337.50176,33.5179383 L334.752249,33.5179383 L329.916346,27.0367468 L329.916346,33.5179383 L328.428376,33.5179383 C327.535134,33.5179383 326.811017,32.7622799 326.811017,31.830128 L326.811017,21.7032663 Z M342.272968,24.5725438 L340.493874,24.5725438 C339.600631,24.5725438 338.876515,23.8168854 338.876515,22.8847335 L338.876515,21.7032663 L347.18974,21.7032663 C348.082982,21.7032663 348.807098,22.4589247 348.807098,23.3910766 L348.807098,24.5725438 L345.410645,24.5725438 L345.410645,33.5179383 L343.890327,33.5179383 C342.997085,33.5179383 342.272968,32.7622799 342.272968,31.830128 L342.272968,24.5725438 Z M354.904542,28.8595819 L353.643001,25.5008394 L352.365288,28.8595819 L354.904542,28.8595819 Z M352.155031,21.6188758 L354.10723,21.6188758 C354.757144,21.6188758 355.34393,22.0248439 355.596969,22.6495513 L359.999222,33.5179383 L357.722029,33.5179383 C357.064738,33.5179383 356.472818,33.1028236 356.224515,32.4677277 L355.810263,31.4081754 L351.443393,31.4081754 L350.634714,33.5179383 L349.042995,33.5179383 C348.417725,33.5179383 347.910844,32.9889774 347.910844,32.3364711 C347.910844,32.1784481 347.941221,32.0220307 348.000178,31.8764768 L352.155031,21.6188758 Z" id="Sponta-Logo" fill="#000000" fill-rule="nonzero"></path>
                </g>
            </g>
        </g>
    </g>
</svg>